<?xml version="1.0" encoding="utf-8"?>
<!-- Generator: Adobe Illustrator 18.1.1, SVG Export Plug-In . SVG Version: 6.00 Build 0)  -->
<svg version="1.1" id="Layer_1" xmlns="http://www.w3.org/2000/svg" xmlns:xlink="http://www.w3.org/1999/xlink" x="0px" y="0px"
	 viewBox="-1388 1461 173 83.7" style="enable-background:new -1388 1461 173 83.7;" xml:space="preserve">
<style type="text/css">
	.st0{fill:#F0533C;}
	.st1{fill:none;stroke:#FFFFFF;stroke-width:4.9737;}
	.st2{fill:none;stroke:#4D4D4F;stroke-width:4.8494;}
	.st3{fill:none;stroke:#4D4D4F;stroke-width:5.8149;}
  .st4{fill:#4D4D4F;stroke:#4D4D4F;stroke-width:5;}
	.st5{fill:#FFFFFF;}
</style>
<g>
	<g>
		<polygon class="st0" points="-1256.9,1478.3 -1266,1478.3 -1263.3,1481 -1282.5,1500.2 -1278.1,1503.5 -1259.5,1484.8
			-1256.9,1487.5 		"/>
		<polygon class="st0" points="-1244,1481.1 -1253.1,1481.1 -1250.5,1483.8 -1272.8,1506.1 -1269,1509.9 -1246.7,1487.6
			-1244,1490.3 		"/>
		<polygon class="st0" points="-1241.4,1494.2 -1250.5,1494.2 -1247.9,1496.8 -1267.1,1516 -1259.6,1516.2 -1244,1500.6
			-1241.4,1503.3 		"/>
	</g>
	<g>
		<path class="st1" d="M-1275.8,1492.2c0-11.3,9.1-20.4,20.4-20.4c11.2,0,20.4,9.1,20.4,20.4c0,11.3-9.1,20.4-20.4,20.4
			C-1266.6,1512.6-1275.8,1503.4-1275.8,1492.2z"/>
		<path class="st2" d="M-1278.1,1492.2c0-12.5,10.2-22.7,22.7-22.7c12.5,0,22.7,10.2,22.7,22.7c0,12.5-10.2,22.7-22.7,22.7
			C-1267.9,1514.9-1278.1,1504.7-1278.1,1492.2z"/>
		<path class="st3" d="M-1282.6,1492.2c0-15,12.2-27.2,27.2-27.2c15,0,27.2,12.2,27.2,27.2c0,15-12.2,27.2-27.2,27.2
			C-1270.4,1519.4-1282.6,1507.2-1282.6,1492.2z"/>
	</g>
</g>
<g>
	<path class="st4" d="M-1219.5,1526.4c-0.1-0.1-0.3-0.3-0.4-0.4c0,0,0,0,0,0v-0.1c0.1,0,0.1,0,0.1,0v-0.1c0.1,0,0.1,0,0.1,0v-0.1
		c0.1,0,0.1,0,0.1,0v-0.1c0.1,0,0.1,0,0.1,0v-0.1c0.1,0,0.1,0,0.1,0v-0.1c0.1,0,0.1,0,0.1,0v-0.1c0.1,0,0.1,0,0.1,0v-0.1
		c0.1,0,0.1,0,0.1,0v-0.1c0.1,0,0.1,0,0.1,0v-0.1c0.1,0,0.1,0,0.1,0v-0.1c0.1,0,0.1,0,0.1,0v-0.1c0.1,0,0.1,0,0.1,0v-0.1
		c0.1,0,0.1,0,0.1,0v-0.1c0.1,0,0.1,0,0.1,0v-0.1c0.1,0,0.1,0,0.1,0v-0.1c0.1,0,0.1,0,0.1,0v-0.1c0.1,0,0.1,0,0.1,0v-0.1
		c0.1,0,0.1,0,0.1,0v-0.1c0.1,0,0.1,0,0.1,0v-0.1c0.1,0,0.1,0,0.1,0v-0.1c0.1,0,0.1,0,0.1,0v-0.1c0.1,0,0.1,0,0.1,0v-0.1
		c0.1,0,0.1,0,0.1,0v-0.1c0.1,0,0.1,0,0.1,0v-0.1c0.1,0,0.1,0,0.1,0v-0.1c0.1,0,0.1,0,0.1,0v-6.4c0,0-10.2,0-10.4,0
		c0-1.9,0-5.8,0-5.8h-1.4h-10.1v0.1h-0.1v0.1h-0.1v0.1h-0.1v0.1h-0.1v0.1h-0.1v0.1h-0.1v0.1h-0.1v0.1h-0.1v0.1h-0.1v0.1h-0.1v0.1
		h-0.1v0.1h-0.1v0.1h-0.1v0.1h-0.1v0.1h-0.1v0.1h-0.1v0.1h-0.1v0.1h-0.1v0.1h-0.1v0.1h-0.1v0.1h-0.1v0.1h-0.1v0.1h-0.1v0.1h-0.1v0.1
		h-0.1v0.1h-0.1v0.1h-0.1v0.1h-0.1v0.1h-0.1v0.1h-0.1v0.1h-0.1v0.1h-0.1v0.1h-0.1v0.1h-0.1v0.1h-0.1v0.1h-0.1v0.1h-0.1v0.1h-0.1v0.1
		h-0.1v0.1h-0.1v0.1h-0.1v0.1h-0.1v0.1h-0.1v0.1h-0.1v0.1h-0.1v0.1h-0.1v0.1h-0.1v0.1h-0.1v0.1h-0.1v0.1h-0.1v0.1h-0.1v0.1h-0.1v0.1
		h-0.1v0.1h-0.1v0.1h-0.1v0.1h-0.1v0.1h-0.1v0.1h-0.1v0.1h-0.1v0.1h-0.1v0.1h-0.1v0.1h-0.1v0.1h-0.1v0.1h-0.1v0.1h-0.1v0.1h-0.1v0
		h-9.3v0.1h-0.1v0.1h-0.1v0.1h-0.1v0.1h-0.1v0.1h-0.1v0.1h-0.1v0.1h-0.1v0.1h-0.1v0.1h-0.1v0.1h-0.1v0.1h-0.1v0.1h-0.1v0.1h-0.1v0.1
		h-0.1v0.1h-0.1v0.1h-0.1v0.1h-0.1v0.1h-0.1v0.1h-0.1v0.1h-0.1v0.1h-0.1v0.1h-0.1v0.1h-0.1v0.1h-0.1v0c-0.1-0.1-0.2-0.2-0.4-0.3
		c-2-1.5-4.6-2.2-7.7-2.2c-3.1,0-5.7,0.8-7.6,2.3c-0.2,0.2-0.5,0.4-0.7,0.6c0,0-0.1,0.1-0.1,0.1c0,0-0.1,0.1-0.1,0.1
		c0,0-0.1,0.1-0.1,0.1c0,0-0.1,0.1-0.1,0.1c0,0-0.1,0.1-0.1,0.1c0,0-0.1,0.1-0.1,0.1c0,0-0.1,0.1-0.1,0.1c0,0-0.1,0.1-0.1,0.1
		c0,0-0.1,0.1-0.1,0.1c0,0-0.1,0.1-0.1,0.1c0,0-0.1,0.1-0.1,0.1c0,0-0.1,0.1-0.1,0.1c0,0-0.1,0.1-0.1,0.1c0,0-0.1,0.1-0.1,0.1
		c0,0-0.1,0.1-0.1,0.1c0,0,0,0,0,0c0-0.7,0-1.4,0-2c0,0,0.1,0,0.1,0l0-0.1c0,0,0.1,0,0.1,0l0-0.1c0,0,0.1,0,0.1,0l0-0.1
		c0.1,0,0.1,0,0.1,0l0-0.1c0,0,0.1,0,0.1,0l0-0.1c0,0,0.1,0,0.1,0l0-0.1c0,0,0.1,0,0.1,0l0-0.1c0.1,0,0.1,0,0.1,0l0-0.1
		c0.1,0,0.1,0,0.1,0l0-0.1c0,0,0.1,0,0.1,0l0-0.1c0.1,0,0.1,0,0.1,0l0-0.1c0,0,0.1,0,0.1,0l0-0.1c0,0,0.1,0,0.1,0l0-0.1
		c0,0,0.1,0,0.1,0l0-0.1c0,0,0.1,0,0.1,0l0-0.1c0,0,0.1,0,0.1,0l0-0.1c0.1,0,0.1,0,0.1,0l0.1-1.5v-5.1l-4.3-0.1
		c-2.4,0-4.2,0.2-5.3,0.8c-0.9,0.4-1.7,0.9-2.3,1.6c0,0-0.1,0.1-0.1,0.1c0,0-0.1,0.1-0.1,0.1c0,0-0.1,0.1-0.1,0.1
		c0,0-0.1,0.1-0.1,0.1c0,0-0.1,0.1-0.1,0.1c0,0-0.1,0.1-0.1,0.1c0,0-0.1,0.1-0.1,0.1c0,0-0.1,0.1-0.1,0.1c0,0-0.1,0.1-0.1,0.1
		c0,0-0.1,0.1-0.1,0.1c0,0-0.1,0.1-0.1,0.1c0,0-0.1,0.1-0.1,0.1c0,0-0.1,0.1-0.1,0.1c0,0-0.1,0.1-0.1,0.1c0,0-0.1,0.1-0.1,0.1
		c0,0-0.1,0.1-0.1,0.1c0,0-0.1,0.1-0.1,0.1c0,0-0.1,0.1-0.1,0.1c0,0-0.1,0.1-0.1,0.1c0,0-0.1,0.1-0.1,0.1c0,0-0.1,0.1-0.1,0.1
		c0,0-0.1,0.1-0.1,0.1c0,0-0.1,0.1-0.1,0.1c0,0-0.1,0.1-0.1,0.1c0,0-0.1,0.1-0.1,0.1c0,0-0.1,0.1-0.1,0.1c0,0-0.1,0.1-0.1,0.1
		c0,0-0.1,0.1-0.1,0.1c0,0-0.1,0.1-0.1,0.1c0,0-0.1,0.1-0.1,0.1c0,0-0.1,0.1-0.1,0.1c0,0-0.1,0.1-0.1,0.1c0,0-0.1,0.1-0.1,0.1
		c0,0-0.1,0.1-0.1,0.1c0,0-0.1,0.1-0.1,0.1c0,0-0.1,0.1-0.1,0.1c0,0-0.1,0.1-0.1,0.1c0,0-0.1,0.1-0.1,0.1c0,0-0.1,0.1-0.1,0.1
		c0,0-0.1,0.1-0.1,0.1c0,0-0.1,0.1-0.1,0.1c0,0-0.1,0.1-0.1,0.1c0,0-0.1,0.1-0.1,0.1c0,0-0.1,0.1-0.1,0.1c0,0-0.1,0.1-0.1,0.1
		c0,0-0.1,0.1-0.1,0.1c0,0-0.1,0.1-0.1,0.1c0,0-0.1,0.1-0.1,0.1c0,0-0.1,0.1-0.1,0.1c0,0-0.1,0.1-0.1,0.1c0,0-0.1,0.1-0.1,0.1
		c0,0-0.1,0.1-0.1,0.1c0,0-0.1,0.1-0.1,0.1c0,0-0.1,0.1-0.1,0.1c0,0-0.1,0.1-0.1,0.1c0,0-0.1,0.1-0.1,0.1c0,0-0.1,0.1-0.1,0.1
		c0,0-0.1,0.1-0.1,0.1c0,0-0.1,0.1-0.1,0.1c0,0-0.1,0.1-0.1,0.1c0,0-0.1,0.1-0.1,0.1c0,0-0.1,0.1-0.1,0.1c0,0-0.1,0.1-0.1,0.1
		c0,0-0.1,0.1-0.1,0.1c0,0-0.1,0.1-0.1,0.1c0,0-0.1,0-0.1,0.1c-0.1-0.2-0.2-0.3-0.4-0.4c-1.2-1.2-2.8-1.8-4.7-1.8
		c-1.3,0-2.7,0.3-4,0.9c0-2.2,0-6.5,0-6.5h-1.4h-10.1v0.1h-0.1v0.1h-0.1v0.1h-0.1v0.1h-0.1v0.1h-0.1v0.1h-0.1v0.1h-0.1v0.1h-0.1v0.1
		h-0.1v0.1h-0.1v0.1h-0.1v0.1h-0.1v0.1h-0.1v0.1h-0.1v0.1h-0.1v0.1h-0.1v0.1h-0.1v0.1h-0.1v0.1h-0.1v0.1h-0.1v0.1h-0.1v0.1h-0.1v0.1
		h-0.1v0.1h-0.1v0.1h-0.1v0.1h-0.1v0.1h-0.1v0.1h-0.1v0.1h-0.1v0.1h-0.1v0.1h-0.1v0.1h-0.1v0.1h-0.1v0.1h-0.1v0.1h-0.1v0.1h-0.1v0.1
		h-0.1v0.1h-0.1v0.1h-0.1v0.1h-0.1v0.1h-0.1v0.1h-0.1v0.1h-0.1v0.1h-0.1v0.1h-0.1v0.1h-0.1v0.1h-0.1v0.1h-0.1v0.1h-0.1v0.1h-0.1v0.1
		h-0.1v0.1h-0.1v0.1h-0.1v0.1h-0.1v0.1h-0.1v0.1h-0.1v0.1h-0.1v0.1h-0.1v0.1h-0.1v0.1h-0.1v0.1h-0.1v0.1h-0.1v0.1h-0.1v0.1h-0.1v0.1
		h-0.1v0.1h-0.1v0h-0.8c0,0,0,0,0,0.1h-0.1c0,0,0,0,0,0c-0.9-0.2-1.8-0.4-2.9-0.4c-2.6,0-4.8,0.8-6.6,2.3c-0.2,0.2-0.5,0.4-0.7,0.7
		c0,0-0.1,0.1-0.1,0.1c0,0-0.1,0.1-0.1,0.1c0,0-0.1,0.1-0.1,0.1c0,0-0.1,0.1-0.1,0.1c0,0-0.1,0.1-0.1,0.1c0,0-0.1,0.1-0.1,0.1
		c0,0-0.1,0.1-0.1,0.1c0,0-0.1,0.1-0.1,0.1c0,0-0.1,0.1-0.1,0.1c0,0-0.1,0.1-0.1,0.1c0,0-0.1,0.1-0.1,0.1c0,0-0.1,0.1-0.1,0.1
		c0,0-0.1,0.1-0.1,0.1c0,0-0.1,0.1-0.1,0.1c0,0-0.1,0.1-0.1,0.1c0,0-0.1,0.1-0.1,0.1c0,0,0,0,0,0v-4.2c0,0-2.1,0-2.8,0
		c0-1.5,0-6.2,0-6.2l-2,1l-7.7,3.7c0,0,0,0,0,0l-0.1,0c0,0,0,0,0,0l-0.1,0c0,0,0,0,0,0l-0.1,0c0,0,0,0,0,0l-0.1,0c0,0,0,0,0,0
		l-0.1,0c0,0,0,0,0,0l-0.1,0c0,0,0,0,0,0l-0.1,0c0,0,0,0,0,0l-0.1,0c0,0,0,0,0,0l-0.1,0c0,0,0,0,0,0l-0.1,0c0,0,0,0,0,0l-0.1,0
		c0,0,0,0,0,0l-0.1,0c0,0,0,0,0,0l-0.1,0c0,0,0,0,0,0l-0.1,0c0,0,0,0,0,0l-0.1,0c0,0,0,0,0,0l-0.1,0c0,0,0,0,0,0l-0.1,0c0,0,0,0,0,0
		h0c0,0,0,0,0,0h-0.2h-0.8c0.6-0.6,1-1.4,1-2.4c0-0.8-0.3-1.9-1.6-2.9c-0.9-0.6-2.1-0.9-3.5-0.9c-1.3,0-2.5,0.3-3.4,0.9
		c-0.3,0.2-0.6,0.4-0.8,0.6c0,0-0.1,0.1-0.1,0.1c0,0-0.1,0.1-0.1,0.1c0,0-0.1,0.1-0.1,0.1c0,0-0.1,0.1-0.1,0.1c0,0-0.1,0.1-0.1,0.1
		c0,0-0.1,0.1-0.1,0.1c0,0-0.1,0.1-0.1,0.1c0,0-0.1,0.1-0.1,0.1c0,0-0.1,0.1-0.1,0.1c0,0-0.1,0.1-0.1,0.1c0,0-0.1,0.1-0.1,0.1
		c0,0-0.1,0.1-0.1,0.1c0,0-0.1,0.1-0.1,0.1c0,0-0.1,0.1-0.1,0.1c0,0-0.1,0.1-0.1,0.1c0,0-0.1,0.1-0.1,0.1c0,0-0.1,0.1-0.1,0.1
		c0,0-0.1,0.1-0.1,0.1c0,0-0.1,0.1-0.1,0.1c0,0-0.1,0.1-0.1,0.1c0,0-0.1,0.1-0.1,0.1c0,0-0.1,0.1-0.1,0.1c0,0-0.1,0.1-0.1,0.1
		c0,0,0,0-0.1,0.1c-0.7-1-1.8-1.7-3.1-2.3c-1.4-0.6-3.6-0.9-6.5-0.9h-11.7h-1.4l-7.1,7.1v7.4c0,0,1.7,0,1.9,0c0,1.2,0,3.5,0,5.3
		c0,0,0,0,0,0l-1.8,1.8v7.4h14l9-4.6v4.5h12.3v-0.1h0.1v-0.1h0.1v-0.1h0.1v-0.1h0.1v-0.1h0.1v-0.1h0.1v-0.1h0.1v-0.1h0.1v-0.1h0.1
		v-0.1h0.1v-0.1h0.1v-0.1h0.1v-0.1h0.1v-0.1h0.1v-0.1h0.1v-0.1h0.1v-0.1h0.1v-0.1h0.1v-0.1h0.1v-0.1h0c0.5,0.6,1.2,1.1,2,1.5
		c0.9,0.4,2,0.6,3.3,0.6c0.9,0,1.9-0.1,2.9-0.4c1-0.3,1.8-0.6,2.4-1l0.6-0.4v0l0.1-0.1v0l0.1-0.1v0l0.1-0.1v0l0.1-0.1v0l0.1-0.1v0
		l0.1-0.1v0l0.1-0.1v0l0.1-0.1v0l0.1-0.1v0l0.1-0.1v0l0.1-0.1v0l0.1-0.1v0l0.1-0.1v0l0.1-0.1v0l0.1-0.1v0l0,0c0.3,0.3,0.6,0.7,1,1
		c1.9,1.5,4.4,2.2,7.5,2.2c2.4,0,4.4-0.5,6-1.4c0.7-0.4,1.3-0.9,1.8-1.5c0,0,0.1-0.1,0.1-0.1c0,0,0.1-0.1,0.1-0.1
		c0,0,0.1-0.1,0.1-0.1c0,0,0.1-0.1,0.1-0.1c0,0,0.1-0.1,0.1-0.1c0,0,0,0,0,0v3h23h0.6h13v-0.1h0.1v-0.1h0.1v-0.1h0.1v-0.1h0.1v-0.1
		h0.1v-0.1h0.1v-0.1h0.1v-0.1h0.1v-0.1h0.1v-0.1h0.1v-0.1h0.1v-0.1h0.1v-0.1h0.1v-0.1h0.1v-0.1h0.1v-0.1h0.1v-0.1h0.1v-0.1h0.1v-0.1
		h0.1v-0.1h0.1v-0.1h0.1v-0.1h0.1v-0.1h0.1v-0.1h0.1v-0.1c0.1,0.1,0.2,0.2,0.3,0.2c1.9,1.5,4.6,2.3,7.9,2.3c3.1,0,5.6-0.8,7.6-2.3
		c0.3-0.2,0.5-0.5,0.8-0.7c0,0,0.1-0.1,0.1-0.1c0,0,0.1-0.1,0.1-0.1c0,0,0.1-0.1,0.1-0.1c0,0,0.1-0.1,0.1-0.1c0,0,0.1-0.1,0.1-0.1
		c0,0,0.1-0.1,0.1-0.1c0,0,0.1-0.1,0.1-0.1c0,0,0.1-0.1,0.1-0.1c0,0,0.1-0.1,0.1-0.1c0,0,0.1-0.1,0.1-0.1c0,0,0.1-0.1,0.1-0.1
		c0,0,0.1-0.1,0.1-0.1c0,0,0.1-0.1,0.1-0.1c0,0,0.1-0.1,0.1-0.1c0,0,0.1-0.1,0.1-0.1c0,0,0.1-0.1,0.1-0.1c0,0,0.1-0.1,0.1-0.1
		c0,0,0,0,0,0v4.2h13.6v-0.1h0.1v-0.1h0.1v-0.1h0.1v-0.1h0.1v-0.1h0.1v-0.1h0.1v-0.1h0.1v-0.1h0.1v-0.1h0.1v-0.1h0.1v-0.1h0.1v-0.1
		h0.1v-0.1h0.1v-0.1h0.1v-0.1h0.1v-0.1h0.1v-0.1h0.1v-0.1h0.1v1.6h11.4c0,0,0,0,0-0.1h0.1c0,0,0,0,0-0.1h0.1c0,0,0,0,0-0.1h0.1
		c0,0,0,0,0-0.1h0.1c0,0,0,0,0-0.1h0.1c0,0,0,0,0-0.1h0.1c0,0,0,0,0-0.1h0.1c0,0,0,0,0-0.1h0.1c0,0,0,0,0-0.1h0.1c0,0,0,0,0-0.1h0.1
		c0,0,0,0,0-0.1h0.1c0,0,0,0,0-0.1h0.1c0,0,0,0,0-0.1h0.1c0,0,0,0,0-0.1h0.1c0,0,0,0,0-0.1h0.1c0,0,0,0,0-0.1h0.1c0,0,0,0,0-0.1h0.1
		c0,0,0,0,0-0.1h0.1c0,0,0,0,0-0.1h0.1c0,0,0,0,0-0.1h0.1c0,0,0,0,0-0.1h0c1,1,1.7,1.8,1.7,1.8h7v-0.1h0.1v-0.1h0.1v-0.1h0.1v-0.1
		h0.1v-0.1h0.1v-0.1h0.1v-0.1h0.1v-0.1h0.1v-0.1h0.1v-0.1h0.1v-0.1h0.1v-0.1h0.1v-0.1h0.1v-0.1h0.1v-0.1h0.1v-0.1h0.1v-0.1h0.1v-0.1
		h0.1v-0.1h0.1v-0.1h0.1v-0.1h0.1v-0.1h0.1v-0.1h0.1v-0.1h0.1v-0.1h0.1v-0.1h0.1v-0.1h0.1v-0.1h0.1v-0.1h0.1v-0.1h0.1v-0.1h0.1v-0.1
		h0.1v-0.1h0.1v-0.1h0.1v-0.1h0.1v-0.1h0.1v-0.1h0.1v-0.1h0.1v-0.1h0.1v-0.1h0.1v-0.1h0.1v-0.1h0.1v-0.1h0.1v-0.1h0.1v-0.1h0.1v-0.1
		h0.1v-0.1h0.1v-0.1h0.1v-0.1h0.1v-0.1h0.1v-0.1h0.1v-0.1h0.1v-0.1h0.1v-0.1h0.1v-0.1h0.1v-0.1h0.1v-0.1h0.1v-0.1h0.1v-0.1h0.1v-0.1
		h0.1v-0.1h0.1v-0.1h0.1v-0.1h0.1v-0.1h0.1v-0.1h0.1v-0.1h0.1v-0.1h0.1v-0.1h0.1v-0.1h0.1v-0.1h0.1v-0.1h0.1v-0.1h0.1v-0.1h0.1v-0.1
		h0.1v-0.1h0.1v-0.1h0.1v-0.1h0.1v-0.1h0.1v-0.1h0.1v-0.1h0.1v-0.1h0.1v-7C-1217.6,1526.4-1219.3,1526.4-1219.5,1526.4z
		 M-1361.9,1530L-1361.9,1530C-1361.9,1530-1361.9,1530-1361.9,1530L-1361.9,1530z"/>
	<g>
		<path class="st5" d="M-1365.2,1532.4h-11.2v-4.6h1.9v-10h-1.9v-4.6h11.7c2.7,0,4.7,0.3,5.9,0.8c1.2,0.5,2.2,1.3,2.8,2.2
			c0.6,0.9,0.9,1.9,0.9,3c0,1.4-0.3,2.5-1,3.4c-0.7,0.9-1.6,1.5-2.8,1.9c-1.1,0.4-2.9,0.6-5.2,0.6h-3v2.7h1.9V1532.4z
			 M-1367.1,1517.4v3.6h1.4c1,0,1.7-0.1,2.2-0.4c0.4-0.2,0.7-0.7,0.7-1.4c0-0.4-0.1-0.8-0.4-1.1c-0.2-0.3-0.5-0.5-0.9-0.6
			c-0.4-0.1-1-0.1-1.9-0.1L-1367.1,1517.4z"/>
		<path class="st5" d="M-1343.9,1532.4h-9.5v-4.2h1.4v-5h-1.4v-4.2h8.3v9.2h1.2V1532.4z M-1352.6,1515.2c0-0.7,0.4-1.3,1.1-1.7
			c0.7-0.4,1.6-0.7,2.7-0.7c1.1,0,2,0.2,2.7,0.7c0.7,0.5,1,1,1,1.7c0,0.7-0.3,1.3-1,1.7c-0.7,0.4-1.6,0.6-2.7,0.6
			c-1.1,0-2-0.2-2.7-0.6C-1352.2,1516.6-1352.6,1516-1352.6,1515.2z"/>
		<path class="st5" d="M-1331,1527.5v4.1c-0.5,0.3-1.1,0.6-2,0.8c-0.9,0.2-1.8,0.4-2.6,0.4c-1,0-1.9-0.2-2.7-0.5
			c-0.8-0.3-1.3-0.8-1.7-1.4c-0.2-0.3-0.4-0.7-0.5-0.9c-0.1-0.3-0.2-0.6-0.2-0.9c-0.1-0.6-0.1-1.8-0.1-3.5v-2.2h-1.7v-4.2h1.7v-2.1
			l6.9-3.3v5.3h2.8v4.2h-2.8v2.6c0,0.8,0.1,1.4,0.2,1.7c0.1,0.3,0.5,0.4,0.9,0.4C-1332.2,1527.9-1331.6,1527.8-1331,1527.5z"/>
		<path class="st5" d="M-1316.8,1526.9l5.2,1.2c-0.4,1.5-1.4,2.6-2.8,3.5c-1.4,0.8-3.2,1.2-5.3,1.2c-2.8,0-5-0.6-6.6-1.9
			c-1.6-1.3-2.4-3-2.4-5.1c0-2,0.8-3.7,2.3-5c1.5-1.3,3.4-2,5.6-2c1.9,0,3.4,0.4,4.4,1.1v-0.9h4.2v5.7h-4.2
			c-0.5-1.5-1.4-2.3-2.7-2.3c-0.8,0-1.5,0.3-2,1c-0.5,0.7-0.7,1.5-0.7,2.4c0,1,0.2,1.9,0.7,2.4c0.5,0.6,1.1,0.9,1.9,0.9
			C-1317.9,1529.2-1317.1,1528.4-1316.8,1526.9z"/>
		<path class="st5" d="M-1299.4,1532.4h-10.5v-4.2h1.7v-10.7h-1.7v-4.2h8.7v7.4c1.8-1.2,3.7-1.8,5.4-1.8c1.6,0,2.8,0.5,3.7,1.4
			c0.9,0.9,1.4,2.5,1.4,4.9v3.2h1.6v4.2h-8.5v-5.5c0-1.7-0.1-2.7-0.3-3.1c-0.2-0.4-0.6-0.6-1.3-0.6c-0.7,0-1.4,0.2-2.1,0.7v4.3h1.9
			V1532.4z"/>
		<path class="st5" d="M-1276.2,1532.4h-10.8v-4.2h1.7v-5h-1.7v-4.2h1.7v-0.3c0-1.4,0.3-2.5,0.9-3.3c0.6-0.8,1.4-1.4,2.3-1.9
			c1-0.4,2.6-0.6,4.8-0.6c1,0,2,0,2.9,0.1v3.7c-0.7-0.1-1.2-0.1-1.7-0.1c-0.6,0-1.1,0.1-1.5,0.2c-0.4,0.2-0.6,0.4-0.7,0.7
			c-0.1,0.3-0.2,0.8-0.2,1.5h2.6v4.2h-2.6v5h2.3V1532.4z"/>
		<path class="st5" d="M-1274.1,1525.6c0-2,0.8-3.6,2.5-5c1.7-1.3,3.9-2,6.7-2c2.8,0,5.1,0.7,6.9,2c1.8,1.3,2.7,3,2.7,5.1
			c0,2-0.8,3.7-2.5,5.1c-1.7,1.3-3.9,2-6.7,2c-3,0-5.3-0.7-7-2C-1273.2,1529.4-1274.1,1527.7-1274.1,1525.6z M-1267,1525.6
			c0,2.1,0.8,3.2,2.3,3.2c1.6,0,2.4-1.1,2.4-3.2c0-1-0.2-1.7-0.6-2.3c-0.4-0.5-1-0.8-1.7-0.8c-0.7,0-1.3,0.3-1.7,0.8
			C-1266.8,1523.9-1267,1524.6-1267,1525.6z"/>
		<path class="st5" d="M-1242.5,1532.4h-10.8v-4.2h1.8v-5h-1.8v-4.2h8.3v3.3c0.3-0.8,0.8-1.6,1.4-2.2c0.6-0.6,1.3-1,1.9-1.2
			c0.6-0.2,1.5-0.3,2.7-0.3v5.9c-0.2,0-0.3,0-0.6,0c-1.4,0-2.5,0.1-3.1,0.4c-0.7,0.3-1.2,0.7-1.5,1.2c-0.3,0.5-0.4,1.1-0.4,2h2
			L-1242.5,1532.4L-1242.5,1532.4z"/>
		<path class="st5" d="M-1229.5,1532.4h-8.6v-4.2h1.7v-10.7h-1.7v-4.2h8.7v13.3l4.4-4.3h-2.4v-3.3h8.5v3.6h-1.6l-2.5,2.5l3,3.1h1.1
			v4.2h-5l-5.5-5.8L-1229.5,1532.4L-1229.5,1532.4z"/>
	</g>
</g>
</svg>
